# xmcd
# Track frame offsets:
# 150
# 11202
# 25955
# 38780
# 51157
# 62447
# 76942
# 88407
# 100745
# 112797
# 123085
# 135445
#
# Disc length: 1964 seconds
# Revision: 0
# Processed by: cddbd v1.5.2PL0 Copyright (c) Steve Scherf et al.
# Submitted via: VisiTrax 2.11.2.271 - For more info visit www.synapsa.com
#
DISCID=8e07aa0c
DTITLE=Slim Dusty - Songs From The Cattle Camps
DYEAR=1968
DGENRE=Australian Country
TTITLE0=Fair Enough
TTITLE1=Dream Time Voices
TTITLE2=The Crow
TTITLE3=Ghosts Of The Golden Mile
TTITLE4=Back In The Saddle
TTITLE5=I Must Have Good Terbaccy When I Smoke
TTITLE6=Hard Hard Country
TTITLE7=St. Peter
TTITLE8=Old Man Drought
TTITLE9=Back Where I Belong
TTITLE10=Old Beau
TTITLE11=Old Mates
EXTD=1999 EMI Music Australia
EXTT0=
EXTT1=
EXTT2=
EXTT3=
EXTT4=
EXTT5=
EXTT6=
EXTT7=
EXTT8=
EXTT9=
EXTT10=
EXTT11=
PLAYORDER=
